<?xml version="1.0" standalone="no"?>
<!DOCTYPE svg PUBLIC "-//W3C//DTD SVG 20010904//EN"
 "http://www.w3.org/TR/2001/REC-SVG-20010904/DTD/svg10.dtd">
<svg version="1.0" xmlns="http://www.w3.org/2000/svg"
 width="265.000000pt" height="309.000000pt" viewBox="0 0 265.000000 309.000000"
 preserveAspectRatio="xMidYMid meet">

<g transform="translate(0.000000,309.000000) scale(0.100000,-0.100000)"
fill="#000000" stroke="none">
<path d="M2253 3049 c-103 -10 -304 -44 -363 -62 l-45 -13 105 -8 c160 -11
641 -55 673 -62 l27 -6 0 75 c0 59 -3 76 -16 81 -21 8 -280 5 -381 -5z"/>
<path d="M777 2824 c-277 -43 -487 -155 -633 -337 -74 -93 -113 -175 -130
-267 -71 -400 144 -831 686 -1369 163 -162 539 -466 985 -797 l39 -29 -24 40
c-232 388 -323 503 -743 932 -127 131 -260 272 -294 314 -146 179 -241 352
-314 569 -39 117 -41 129 -37 220 3 88 7 104 41 173 91 184 266 302 536 362
147 33 351 62 581 82 l195 17 -73 23 c-88 28 -237 58 -352 73 -115 14 -356 11
-463 -6z"/>
<path d="M2554 1018 c-230 -240 -306 -332 -362 -444 -30 -59 -105 -264 -97
-264 8 0 305 217 428 312 l127 99 0 194 c0 107 -2 195 -4 195 -1 0 -43 -42
-92 -92z"/>
</g>
</svg>
